<svg id="Layer_1" data-name="Layer 1" xmlns="http://www.w3.org/2000/svg" viewBox="0 0 566.93 141.73"><defs><style>.cls-1{fill:#040404;fill-rule:evenodd;}</style></defs><title>instagram-new-seeklogo</title><path class="cls-1" d="M86.5,11.48a8,8,0,0,1,3.88.15,13.78,13.78,0,0,1,5.42,2.24,3.19,3.19,0,0,1,1.44,2.6q0,27.26,0,54.5c0,6,.33,12-.77,17.87-.83,4.78-2.68,9.55-6.11,13.08a14.67,14.67,0,0,1-3.91,3.24,7.68,7.68,0,0,1-4.12,1.17,1.62,1.62,0,0,1-.56-1.31,16.66,16.66,0,0,1,1.1-4.08,53.88,53.88,0,0,0,1.94-14c.12-22.14.16-44.28.27-66.42a9.85,9.85,0,0,0-.13-1.71c-.85,0-1.38.74-2,1.27a30.78,30.78,0,0,0-6.45,9.05A40.67,40.67,0,0,0,73,42.91a26.12,26.12,0,0,0,.61,9.24,17.66,17.66,0,0,0,3.07,6.51,2.42,2.42,0,0,1,.32,2.8c-.81.83-2.06.39-3,.09a18.48,18.48,0,0,1-8-6,18.69,18.69,0,0,1-3.66-11.28A35.19,35.19,0,0,1,64.79,34,41.36,41.36,0,0,1,73,20.77a46.19,46.19,0,0,1,7.58-6.45,21.21,21.21,0,0,1,6-2.84Zm120,.88c1-.89,2.51-.76,3.78-.6A28.25,28.25,0,0,1,217,13.62a5.43,5.43,0,0,1,1.73,1.18c-.2,5-.4,9.91-.66,14.86,5,.23,10,.51,15,.8.86,0,2,.29,2.17,1.32a7.78,7.78,0,0,1-.75,4.55c-.43.72-1,1.6-2,1.54-4.84.08-9.68.23-14.52.3-.27,7-.46,13.93-.7,20.89-.13,6.35-.71,12.72,0,19.06A20.07,20.07,0,0,0,219,85.35a3.41,3.41,0,0,0,2.48,1.93,5.41,5.41,0,0,0,3.93-1.39,17.09,17.09,0,0,0,3.89-5.41,44.32,44.32,0,0,0,2.81-7.16,19.23,19.23,0,0,0,.16-3.31,52,52,0,0,1,3-17.13c1.51-4,3.63-7.89,7-10.6a13.4,13.4,0,0,1,13.48-2.21,13.08,13.08,0,0,1,6.64,6.08c.19-1.27-.11-2.67.46-3.86.81-1.3,2.52-1.37,3.89-1.25A14.11,14.11,0,0,1,272,42.61a3.48,3.48,0,0,1,2,2.67c-.32,10.63-.76,21.26-.42,31.89a39.82,39.82,0,0,0,.92,6.86c.42,1.62.94,3.38,2.3,4.48a3.58,3.58,0,0,0,4.31-.28c1.94-1.51,3.05-3.78,4-6a3.58,3.58,0,0,0,.49-2,70.15,70.15,0,0,1,.17-19.2A35.77,35.77,0,0,1,290,48.84a22.26,22.26,0,0,1,9.5-9.06,8.24,8.24,0,0,1,2.41-.8,15.19,15.19,0,0,1,10.92,4.16,16.8,16.8,0,0,1,1.91,2.61c.26-1.2,0-2.46.41-3.62.65-1.34,2.37-1.42,3.66-1.25a19,19,0,0,1,6.3,1.91c1.19.7,1.19,2.23,1.13,3.44-.11,12-.29,24-.37,35.92a95.84,95.84,0,0,0,7.33-12,62,62,0,0,0,5.94-16.07,9.81,9.81,0,0,1-3.3-5,9.86,9.86,0,0,1,.43-4.9,7.62,7.62,0,0,1,4.95-5.26,7.75,7.75,0,0,1,5.76.37,4.77,4.77,0,0,1,2.3,3.6,12.3,12.3,0,0,1-.25,4.4c3.2-.51,6.4-1,9.55-1.82a12.8,12.8,0,0,1,6.64-.2,4.66,4.66,0,0,1,3,3.39,8.51,8.51,0,0,1-.11,5,39.45,39.45,0,0,0-1.52,6.62c-1,5.87-2.34,11.88-1.35,17.85a30.6,30.6,0,0,0,2,7.82c.64,1.31,1.46,2.76,2.95,3.23a4.89,4.89,0,0,0,4.11-1.26,12.46,12.46,0,0,0,3.66-6.46,54.14,54.14,0,0,1-.55-19.08,42.1,42.1,0,0,1,4.38-13.66A18.31,18.31,0,0,1,389.45,41a13,13,0,0,1,12,.22,13.58,13.58,0,0,1,5.26,5.29c.2-1.29-.13-2.73.56-3.9,1-1.28,2.9-1.2,4.37-1,2.16.38,4.53.9,6.05,2.63,1,1.08.5,2.61.51,3.92-.18,7-.47,13.95-.45,20.94,0,5.33-.17,10.76,1.26,16a6.73,6.73,0,0,0,2.11,3.6,3.78,3.78,0,0,0,4.38-.21,14.47,14.47,0,0,0,3.82-5,26.34,26.34,0,0,0,2.15-5.08c0-11.74.09-23.48.11-35.22a2.49,2.49,0,0,1,1.27-2.57c.72-.45,1.56-.12,2.34,0,2.07.38,4.27.45,6.18,1.43a2.11,2.11,0,0,1,1.41,1.87c0,5.8,0,11.6,0,17.4a16.88,16.88,0,0,0,.07,2c1.72-5.29,3.51-10.56,5.55-15.73a48.42,48.42,0,0,1,2.69-5.63c.79-1.44,2.63-1.68,4.11-1.58,3.16.24,6.5,1.6,8.17,4.42a6.78,6.78,0,0,1,.86,3.41c-.06,6,.28,12.07.72,18.08.14,1.87.16,3.75.46,5.61a.79.79,0,0,0,.35-.57,93.92,93.92,0,0,1,3-13.14A125.29,125.29,0,0,1,473.68,44c.51-1.14,1-2.44,2.18-3.06,1.68-.92,3.72-.63,5.48-.11a16.67,16.67,0,0,1,5.68,2.8,5.73,5.73,0,0,1,2.17,4c-.5,9.34-.95,18.72-.25,28.07a43,43,0,0,0,1.15,7.65,11.85,11.85,0,0,0,1.76,4,3.31,3.31,0,0,0,3.78,1.17,5.41,5.41,0,0,0,2.59-2.64c1.39-2.59,1.8-5.55,2.59-8.35a2.59,2.59,0,0,1,1.48-2.08c.65-.41,1.32.1,1.83.48.66.61.46,1.58.47,2.39-.18,4.51-.89,9.23-3.54,13a10.54,10.54,0,0,1-9.7,4.7A11,11,0,0,1,482.77,91c-2.38-3.61-3.34-7.92-4-12.13-1.1-8.39-.82-16.87-.61-25.31a2.11,2.11,0,0,0-.73.94,70.22,70.22,0,0,0-5.22,14.85,97.26,97.26,0,0,0-2.9,20.22,1.81,1.81,0,0,1-1.47,1.75,7.36,7.36,0,0,1-5.94,0,8.77,8.77,0,0,1-4.11-4.46,21.61,21.61,0,0,1-1.57-6.13c-1.11-8.68-1.49-17.42-1.93-26.15.06-.62-.65-.22-1-.16-4.25,7.4-6.41,15.8-7.5,24.2a119.42,119.42,0,0,0-1,14.76,2.54,2.54,0,0,1-1.28,2.18,8.33,8.33,0,0,1-4.83.67c-1.93-.2-4-.36-5.61-1.5A2.61,2.61,0,0,1,432,92.66c-.12-1.61-.15-3.22-.28-4.82A35.63,35.63,0,0,1,429,91.69,12.44,12.44,0,0,1,422.58,96a10.8,10.8,0,0,1-10.21-3.14,15.92,15.92,0,0,1-3.7-8.09A20,20,0,0,1,400,94.3a16.5,16.5,0,0,1-6.17,1.83,12.29,12.29,0,0,1-7-1.09,15.65,15.65,0,0,1-6.9-7.64c-1.66,3.73-4.52,7.33-8.63,8.42s-8.42-.54-11.32-3.43c-3.71-3.62-5.65-8.72-6.23-13.8a36.6,36.6,0,0,1,0-7.4,85.52,85.52,0,0,1,2.4-16.39,8.81,8.81,0,0,0,0-.89c-3-.14-5.92,0-8.87,0a76.11,76.11,0,0,1-6.08,14.42A124.78,124.78,0,0,1,326,90.45c.07,6.56.27,13.12-.05,19.68a43.36,43.36,0,0,1-3.26,15.25A18.48,18.48,0,0,1,315,134a20.54,20.54,0,0,1-8.56,2.4c-3.69-.26-7.54-1.19-10.42-3.63a11.66,11.66,0,0,1-4-6.65,13.89,13.89,0,0,1,.23-6.78c1.31-4.1,3.94-7.62,6.77-10.81s6.17-6,9.29-9q3.75-3.53,7.54-7c0-1.82-.24-3.64-.3-5.46a27.45,27.45,0,0,1-3.65,4.39,17.06,17.06,0,0,1-13.85,4.67c-3.48-.62-6.32-3-8.41-5.76a22.32,22.32,0,0,1-2.1-3.17c-1.84,3.65-4.5,7.37-8.59,8.65a11.24,11.24,0,0,1-11.34-3.73,15.3,15.3,0,0,1-3.26-7.56,20.8,20.8,0,0,1-7.82,9.13,16.59,16.59,0,0,1-7.46,2.41,12,12,0,0,1-8.18-2c-4.27-3-6.36-8.06-7.62-12.94a31,31,0,0,1-2.85,6.16,25,25,0,0,1-3.84,5,11.82,11.82,0,0,1-6.54,3.48,10.66,10.66,0,0,1-8.15-2.4,16,16,0,0,1-4.11-5.69,36.87,36.87,0,0,1-2.88-12.52c-2.25,5-4.91,9.88-8.85,13.73a23.3,23.3,0,0,1-11,6.45,29.82,29.82,0,0,1-10.19.46,21.47,21.47,0,0,1-8.49-2.32,5.73,5.73,0,0,1-2.89-3.23c-.24-1.61.68-3.08,1.56-4.34a7.78,7.78,0,0,1,3.25-2.9c1.3-.43,2.44.64,3.46,1.3a12.69,12.69,0,0,0,5.46,3.1,5.33,5.33,0,0,0,5.69-1.94,11.42,11.42,0,0,0,1.53-5.72c0-3.72-2.4-6.88-4.92-9.41-2.35-2.25-4.81-4.39-7.24-6.56-3.46,5.89-7.18,11.63-10.67,17.5a39.66,39.66,0,0,1-7.83,10.23,16,16,0,0,1-8.22,4.26A6.07,6.07,0,0,1,140,93.42,15.77,15.77,0,0,1,137.2,86c-.63-4.72-.39-9.5-.32-14.25.08-6,.4-12.08.6-18.12a31.4,31.4,0,0,0,.06-3.88c-.41.09-.89.1-1.15.48-5.78,6.51-9.39,14.6-12.18,22.76A130.11,130.11,0,0,0,119,94.88a4.15,4.15,0,0,1-3.34.78c-1.41-.21-2.86,0-4.25-.31a4.23,4.23,0,0,1-2.62-2.57,18.44,18.44,0,0,1-1.12-7.51q.18-21.43.32-42.87c0-.69.16-1.56.9-1.8a8.7,8.7,0,0,1,4.52.25c1.65.43,3.45.85,4.69,2.11.63.6.36,1.54.41,2.31,0,7.93-.15,15.86-.11,23.78,2.6-7,5.17-14.15,9.22-20.5a28.11,28.11,0,0,1,2.88-3.8c1.93-2.25,4.58-4.21,7.65-4.28,2.3-.09,4.41,1,6.43,2A8.7,8.7,0,0,1,149,46.76a8.85,8.85,0,0,1,.28,3.73c-.2,6.82-.4,13.64-.64,20.46,0,2.78-.27,5.56-.1,8.35a13.34,13.34,0,0,0,.69,3.91c.28.7.69,1.51,1.52,1.64a2.84,2.84,0,0,0,2-.94A27,27,0,0,0,156.05,80c2.86-4,5.31-8.22,7.76-12.45,1.43-2.62,2.93-5.21,4.26-7.88-.47-.79-1.19-1.41-1.6-2.23a10.88,10.88,0,0,1-1.19-8.64,13.34,13.34,0,0,1,4.83-7.06,14.41,14.41,0,0,1,5.51-2.3,7.38,7.38,0,0,1,5.61.8A4,4,0,0,1,183,43.62a13.59,13.59,0,0,1-2,7A34.88,34.88,0,0,1,177,56.42c4.88,3.57,10,7,14.17,11.34a15.06,15.06,0,0,1,4.42,8.45,16.4,16.4,0,0,1-.22,5c4.6-4,8.17-9.49,9.09-15.59.12-9.32.09-18.64.19-28-4.26-.07-8.52-.08-12.78-.2A2.9,2.9,0,0,1,190.77,35a8.91,8.91,0,0,1,2.07-6c.22-.34.65-.23,1-.26l11.4.15c.18-4.31.28-8.63.44-12.94,0-1.24,0-2.63.85-3.63Zm46.47,36c-2.49.5-4.35,2.51-5.52,4.67a28.75,28.75,0,0,0-2.75,9.44,68.49,68.49,0,0,0-.54,12.8,25,25,0,0,0,2.2,9.63,7.47,7.47,0,0,0,3.9,3.73,4.3,4.3,0,0,0,3.61-.19,12.13,12.13,0,0,0,4.93-5.52,38,38,0,0,0,3.31-13.09c.36-4.67.49-9.45-.63-14a12.31,12.31,0,0,0-3.2-5.93A5.94,5.94,0,0,0,253,48.32Zm53.05.17c-3,.82-5.07,3.42-6.42,6.09a37.72,37.72,0,0,0-3.09,13.28c-.22,5.1-.27,10.35,1.3,15.27.79,2.32,2.14,4.7,4.47,5.76a4.82,4.82,0,0,0,4.58-.31,11.11,11.11,0,0,0,2.95-2.85,24.37,24.37,0,0,0,3.71-8.57A56.68,56.68,0,0,0,315,63.36,31.38,31.38,0,0,0,313.68,54a9.51,9.51,0,0,0-3.29-4.83,5,5,0,0,0-4.34-.65Zm92,.39c-2.61.41-4.61,2.45-5.79,4.7-2.13,4-2.77,8.62-3.17,13.09-.33,5-.47,10.16.71,15.1a11.88,11.88,0,0,0,3.56,6.48,5,5,0,0,0,4.67,1c2.09-.7,3.55-2.49,4.72-4.28,2.67-4.43,3.66-9.64,4.16-14.72a42.74,42.74,0,0,0-.66-13.91,11.63,11.63,0,0,0-3.31-6,5.78,5.78,0,0,0-4.89-1.45Zm-85.75,55.83c-4.62,4.56-8.9,9.68-11.46,15.7a10.24,10.24,0,0,0-.76,6.86,5.21,5.21,0,0,0,3.66,3.76,8.66,8.66,0,0,0,6.78-.67,10,10,0,0,0,3.71-5.15c1.37-3.88,1.64-8,1.83-12.1s.18-8,.2-12a44.39,44.39,0,0,0-4,3.55Z"/></svg>